<svg width="72" height="45" viewBox="0 0 72 45" fill="none" xmlns="http://www.w3.org/2000/svg">
<path d="M20.9793 3.83869L57.9411 13.7426C65.4067 15.7431 69.8373 23.4173 67.8371 30.883C65.8367 38.3488 58.1625 42.7794 50.6967 40.779L13.7349 30.8752C6.26922 28.8745 1.83842 21.2005 3.83887 13.7347C5.83946 6.26915 13.5136 1.83846 20.9793 3.83869Z" fill="white" fill-opacity="0.1"/>
<path d="M20.9793 3.83869L57.9411 13.7426C65.4067 15.7431 69.8373 23.4173 67.8371 30.883C65.8367 38.3488 58.1625 42.7794 50.6967 40.779L13.7349 30.8752C6.26922 28.8745 1.83842 21.2005 3.83887 13.7347C5.83946 6.26915 13.5136 1.83846 20.9793 3.83869Z" stroke="#C9E4EF" stroke-width="0.354307"/>
<path d="M28.2772 15.1123C28.7308 14.7868 29.1128 14.2889 29.205 13.7003C28.6981 13.5905 28.0078 13.7247 27.5424 14.0473C27.1293 14.3197 26.692 14.8279 26.6183 15.3958C27.1673 15.5939 27.8145 15.4228 28.2772 15.1123Z" fill="white"/>
<path d="M28.5913 16.0699C27.7884 15.804 26.9612 16.1172 26.5716 16.0128C26.1819 15.9084 25.7001 15.3208 25.0518 15.1595C24.2089 14.9465 23.3057 15.2009 22.6822 15.8234C21.4109 17.0623 21.4702 19.4212 22.0009 20.8499C22.2557 21.5546 22.5793 22.3421 23.2428 22.4947C23.8702 22.6373 24.2123 22.334 24.9672 22.5363C25.7215 22.7384 25.8356 23.1894 26.4962 23.3537C27.181 23.5245 27.7632 23.0564 28.3364 22.5729C28.9926 22.0233 29.3621 21.4217 29.3839 21.3891C29.3749 21.374 28.2032 20.5376 28.5827 19.0729C28.8983 17.8459 30.089 17.5411 30.1474 17.518C29.789 16.5183 28.9015 16.1786 28.5913 16.0699Z" fill="white"/>
<path d="M36.0399 16.246C37.8127 16.721 38.7277 18.244 38.2626 19.9797C37.7958 21.7217 36.2148 22.5825 34.423 22.1024L32.4601 21.5765L31.6441 24.6218L30.226 24.2418L32.6144 15.3281L36.0399 16.246ZM32.7713 20.4151L34.3986 20.8511C35.6333 21.182 36.5098 20.7217 36.811 19.5974C37.1122 18.4733 36.5817 17.6425 35.3533 17.3134L33.7197 16.8757L32.7713 20.4151Z" fill="white"/>
<path d="M37.4831 24.2454C37.7877 23.1087 38.8674 22.6499 40.4736 22.9876L42.3251 23.3712L42.4592 22.8709C42.6529 22.1481 42.2685 21.5817 41.4329 21.3578C40.6412 21.1457 40.0481 21.3839 39.7723 21.9325L38.4807 21.5864C38.8711 20.433 40.1285 19.843 41.7748 20.2841C43.3893 20.7167 44.1978 21.8272 43.8486 23.1306L42.6486 27.609L41.3379 27.2578L41.6243 26.1892L41.5928 26.1807C41.0129 26.8 40.0483 27.0314 39.1745 26.7973C37.8702 26.4478 37.1703 25.4128 37.4831 24.2454ZM41.9395 24.8105L42.0769 24.2978L40.4104 23.9572C39.5787 23.794 39.0223 24.0222 38.8733 24.5782C38.7211 25.1464 39.1029 25.646 39.8374 25.8428C40.7934 26.099 41.7127 25.6567 41.9395 24.8105Z" fill="white"/>
<path d="M43.2998 30.2842L43.5895 29.2032C43.684 29.2549 43.9119 29.316 44.0259 29.3466C44.6591 29.5162 45.0705 29.3484 45.4581 28.7373C45.4614 28.7249 45.6845 28.3742 45.6861 28.368L45.0231 21.2188L46.5045 21.6157L46.7721 27.3548L46.7972 27.3615L49.8985 22.5251L51.342 22.9119L47.0149 29.0815C46.0232 30.5042 45.229 30.8342 43.8487 30.4644C43.7346 30.4338 43.396 30.3298 43.2998 30.2842Z" fill="white"/>
</svg>
