<svg width="62" height="62" viewBox="0 0 62 62" fill="none" xmlns="http://www.w3.org/2000/svg">
<path d="M24.7183 7.57022C37.6564 4.10348 50.9551 11.7815 54.4219 24.7196C57.8886 37.6578 50.2106 50.9565 37.2725 54.4233C24.3343 57.8901 11.0356 50.212 7.56884 37.2739C4.10207 24.3357 11.7801 11.037 24.7183 7.57022Z" fill="#DB0011"/>
<path d="M24.7183 7.57022C37.6564 4.10348 50.9551 11.7815 54.4219 24.7196C57.8886 37.6578 50.2106 50.9565 37.2725 54.4233C24.3343 57.8901 11.0356 50.212 7.56884 37.2739C4.10207 24.3357 11.7801 11.037 24.7183 7.57022Z" stroke="#FFD2D3" stroke-width="2.10897"/>
<path d="M37.4663 18.2253L18.9473 23.1875L24.4602 43.762L42.9792 38.7999L37.4663 18.2253Z" fill="#EC0000"/>
<path d="M43.0163 38.7933L49.5194 26.0249L37.5034 18.2188L43.0163 38.7933Z" fill="white"/>
<path d="M24.4189 43.7653L12.4029 35.9591L18.906 23.1908L24.4189 43.7653Z" fill="white"/>
<path d="M37.5163 18.2119L30.9632 30.9937L18.9473 23.1875L37.5163 18.2119Z" fill="white"/>
<path d="M24.4664 43.7482L30.9695 30.9799L43.0355 38.7726L24.4664 43.7482Z" fill="white"/>
</svg>
