<svg width="70" height="70" viewBox="0 0 70 70" fill="none" xmlns="http://www.w3.org/2000/svg">
<path d="M22.128 13.0191C34.0306 6.14713 49.2505 10.2253 56.1225 22.1279C62.9945 34.0306 58.9163 49.2505 47.0137 56.1225C35.1111 62.9945 19.8912 58.9163 13.0192 47.0137C6.14715 35.111 10.2253 19.8911 22.128 13.0191Z" fill="white" fill-opacity="0.1"/>
<path d="M22.128 13.0191C34.0306 6.14713 49.2505 10.2253 56.1225 22.1279C62.9945 34.0306 58.9163 49.2505 47.0137 56.1225C35.1111 62.9945 19.8912 58.9163 13.0192 47.0137C6.14715 35.111 10.2253 19.8911 22.128 13.0191Z" stroke="#C9E4EF" stroke-width="0.843587"/>
<g clip-path="url(#clip0_4694_29863)">
<path d="M34.3676 26.7021L27.7305 30.5341L34.6076 42.4456L41.2448 38.6137L34.3676 26.7021Z" fill="#FF5F00"/>
<path d="M31.6072 36.2445C30.2707 33.9296 30.0695 31.0994 31.0553 28.6222C26.2738 27.9314 21.84 31.2489 21.1559 36.0492C20.4597 40.8286 23.7746 45.2563 28.5772 45.935C32.5889 46.509 36.4448 44.2828 37.9535 40.5215C35.2942 40.1488 32.9438 38.5595 31.6072 36.2445Z" fill="#EB001B"/>
<path d="M46.7861 27.4852C49.204 31.6732 47.7679 37.02 43.5749 39.4408C41.8682 40.4262 39.8966 40.8069 37.9617 40.521C39.7542 36.0347 37.5771 30.9501 33.0778 29.1423C32.4312 28.8982 31.7546 28.6996 31.0845 28.6095C32.877 24.1232 37.9881 21.9299 42.4663 23.7499C44.2853 24.4675 45.8019 25.7805 46.7861 27.4852Z" fill="#F79E1B"/>
<path d="M48.7448 32.5873L48.599 32.3348L48.7044 32.274L48.6801 32.2319L48.4272 32.3779L48.4515 32.42L48.5569 32.3591L48.7027 32.6117L48.7448 32.5873ZM49.2295 32.3075L49.0594 32.0129L48.9751 32.0616L49.0123 32.3207L48.8065 32.1589L48.7222 32.2076L48.8923 32.5022L48.9555 32.4657L48.8219 32.2342L49.0155 32.3749L49.0787 32.3384L49.0537 32.1004L49.1873 32.3319L49.2295 32.3075Z" fill="#F79E1B"/>
</g>
<defs>
<clipPath id="clip0_4694_29863">
<rect width="28.3445" height="17.4966" fill="white" transform="translate(17.9233 34.081) rotate(-30)"/>
</clipPath>
</defs>
</svg>
