<svg width="103" height="64" viewBox="0 0 103 64" fill="none" xmlns="http://www.w3.org/2000/svg">
<path d="M29.9709 5.48439L82.7723 19.6325C93.4379 22.4903 99.7674 33.4534 96.9096 44.119C94.0518 54.7845 83.0886 61.1141 72.4231 58.2563L19.6217 44.1082C8.95611 41.2504 2.62656 30.2872 5.48436 19.6217C8.34219 8.95612 19.3053 2.62656 29.9709 5.48439Z" fill="white" fill-opacity="0.1"/>
<path d="M29.9709 5.48439L82.7723 19.6325C93.4379 22.4903 99.7674 33.4534 96.9096 44.119C94.0518 54.7845 83.0886 61.1141 72.4231 58.2563L19.6217 44.1082C8.95611 41.2504 2.62656 30.2872 5.48436 19.6217C8.34219 8.95612 19.3053 2.62656 29.9709 5.48439Z" stroke="#C9E4EF" stroke-width="0.506152"/>
<path d="M49.659 31.2221L48.2687 36.4109L46.622 35.9697L50.0553 23.1562L54.4208 24.326C55.5272 24.6224 56.3718 25.244 56.946 26.1884C57.5375 27.1374 57.6907 28.1437 57.4057 29.2072C57.1139 30.2964 56.478 31.0912 55.4937 31.6088C54.535 32.1333 53.4951 32.2407 52.3801 31.942L49.6613 31.2135L49.659 31.2221ZM51.2792 25.1756L50.0819 29.644L52.835 30.3817C53.4868 30.5563 54.0954 30.4804 54.6415 30.1579C55.1961 29.8377 55.5615 29.3657 55.7224 28.7653C55.881 28.1736 55.7982 27.5906 55.478 27.036C55.1709 26.4666 54.6904 26.0988 54.03 25.9218L51.2769 25.1842L51.2792 25.1756Z" fill="white"/>
<path d="M61.7311 30.3062C62.9489 30.6325 63.8222 31.2158 64.3508 32.0561C64.8794 32.8964 64.9921 33.8825 64.6887 35.0146L63.2409 40.4179L61.6714 39.9973L61.9977 38.7795L61.9291 38.7611C60.9827 39.583 59.9403 39.8368 58.8082 39.5335C57.839 39.2738 57.1087 38.7748 56.6108 38.0255C56.113 37.2762 55.9778 36.477 56.2076 35.6193C56.4512 34.7102 56.9873 34.0817 57.8159 33.7338C58.6468 33.3773 59.6358 33.3574 60.7765 33.663C61.7542 33.925 62.5121 34.3211 63.0417 34.8491L63.1428 34.4717C63.2968 33.8971 63.2025 33.3571 62.8559 32.8322C62.5094 32.3073 62.0305 31.9675 61.4216 31.8044C60.5039 31.5585 59.6714 31.7491 58.9306 32.3871L57.7247 31.0896C58.8326 30.1454 60.1701 29.8879 61.7311 30.3062ZM57.8989 36.1001C57.784 36.5289 57.8676 36.9374 58.1605 37.3193C58.4449 37.6988 58.8347 37.9595 59.3235 38.0905C60.0182 38.2766 60.7047 38.1848 61.3829 37.815C62.0611 37.4452 62.4964 36.9184 62.6826 36.2237C62.276 35.6827 61.6193 35.2861 60.7016 35.0402C60.0326 34.8609 59.4315 34.8745 58.9005 35.0724C58.3563 35.285 58.0253 35.6284 57.8989 36.1001Z" fill="white"/>
<path d="M74.5677 34.0283L65.6959 45.1823L63.9977 44.7273L67.2224 40.8573L65.8024 31.6797L67.5949 32.16L68.5154 39.1538L68.5497 39.163L72.7752 33.548L74.5677 34.0283Z" fill="white"/>
<path d="M43.374 28.3919C43.5178 27.855 43.6075 27.3284 43.6506 26.8104L36.7482 24.9609L35.9898 27.7912L39.9648 28.8572C39.5513 29.7557 38.8173 30.4195 37.8788 30.7416L37.3868 32.5779L39.7531 33.2119C41.4774 32.3034 42.7755 30.6252 43.374 28.3919Z" fill="#4285F4"/>
<path d="M37.8689 30.7264C37.0912 30.9941 36.1733 31.0267 35.181 30.7609C33.2642 30.2472 31.9841 28.5199 31.8683 26.6228L29.4274 25.9688L28.92 27.8625C29.4863 30.5862 31.5305 32.8989 34.402 33.6683C36.3866 34.2001 38.2288 33.9942 39.7434 33.1958L37.8689 30.7264Z" fill="#34A853"/>
<path d="M32.042 25.1872C32.173 24.6983 32.3811 24.2476 32.6485 23.843L33.156 21.9493L30.7151 21.2953C29.9492 22.1536 29.3677 23.1984 29.0497 24.3854C28.7316 25.5724 28.7136 26.7681 28.9469 27.8941L31.8952 26.6544C31.8659 26.1704 31.911 25.676 32.042 25.1872Z" fill="#FABB05"/>
<path d="M37.5857 21.8934C38.6689 22.1837 39.5389 22.8167 40.1095 23.7509L42.7679 22.2175C41.8121 20.6901 40.3468 19.5171 38.3647 18.986C35.4941 18.2168 32.5665 19.1973 30.7142 21.273L32.6477 23.8207C33.6966 22.2357 35.6688 21.3798 37.5857 21.8934Z" fill="#E94235"/>
</svg>
